<svg xmlns="http://www.w3.org/2000/svg" xmlns:xlink="http://www.w3.org/1999/xlink" version="1.1" x="0px" y="0px" viewBox="0 0 100 125" enable-background="new 0 0 100 100" xml:space="preserve"><g><path d="M89.6,89.3c-0.1-0.2-0.2-0.4-0.3-0.6c-2-2.9-3.8-6-5.4-9.2c-1-2.1-1.8-4.4-2.7-6.6c-0.4-1-0.9-2.2-1.5-3.1   c-0.7-0.9-1.8-1.6-2.6-2.5c-1-1.1-1.5-2.4-2.3-3.6c-0.9-1.4-2.1-1.9-3.4-2.9c-0.8-0.6-0.9-1.6-1.5-2.3c-0.3-0.4-0.6-0.6-1-0.8   c-0.3-0.2-0.9-0.1-1.2-0.4c-0.6-0.6,0.1-1.8,0.4-2.3c2.6-4.8,3.9-9.1,4-13.3c0.1-2.8-0.5-5.5-0.9-7.9c-0.6-3.1-1.5-6.7-3.5-9.5   c-2.4-3.3-6-6.1-9.1-8.7c-1.5-1.2-2.9-2.5-4.6-3.3c-2.1-1-4.6-0.5-6.8-0.1c-2.4,0.5-4.8,1-7,1.9c-3.3,1.4-6.6,3.7-9,6.3   c-1.8,1.9-3.1,4.2-3.5,6.8c-0.2,1.3,0.1,2.5-0.3,3.7c-0.5,2-1.4,3.9-1.8,5.9c-1.2,4.9-1.7,11.2,0.8,15.8c1.2,2.1,3,3.8,4.5,5.7   c0.5,0.6,1,1.3,1.1,2.1c0.3,1.8-1,3.5-2.4,4.7c-3.6,3.3-7.9,5.8-11.5,9.2c-3.5,3.4-6.4,8-5.9,12.9c0,0.3,0.1,0.7,0.4,0.9   c0.4,0.4,1.2,0,1.4-0.5s0.1-1.1,0.1-1.7c-0.3-4.4,2.5-8.4,5.8-11.3c3.3-2.9,7.2-5.1,10.3-8.2c0.7-0.7,1.4-1.5,2.3-2   c3.5-1.9,8.1,1.8,11.8,0.2c0.3-0.1,0.7-0.4,0.7-0.7c0-0.7-1-0.6-1.7-0.5c-3.2,0.7-6.6-1.5-9.8-0.8c0.6-2-0.5-4.2-1.8-5.8   c-1.4-1.6-3-3-4.1-4.9c-1-1.9-1.3-4.1-1.3-6.3c-0.1-2.5,0.2-5.1,0.6-7.6c0.5-2.4,1.4-4.5,2.1-6.8c0.5-1.6,0-3.4,0.5-5.1   c0.5-1.7,1.5-3.3,2.8-4.6c1.8-1.9,4-3.4,6.4-4.8c2.5-1.6,5.4-2.2,8.3-2.9c2.6-0.6,5.4-1.1,7.7,0.6c2.3,1.6,4.4,3.4,6.4,5.3   c2,1.8,4,3.5,5.6,5.6c1.9,2.6,2.7,5.8,3.3,8.9c0.5,2.3,1,4.9,0.9,7.6c-0.1,2.8-0.7,5.5-1.7,8.2c-0.5,1.3-1.1,2.6-1.7,3.8   c-0.5,0.9-1,1.9-1.1,2.9c0,0.5,0,1,0.3,1.4c0.1,0.2,1.1,0.9,0.8,1.1c-0.1,0.1-0.3,0.1-0.5,0.1c-1.1,0-2.4,1-3.3,1.6   c-1,0.8-2.2,1.5-3.5,1.5c-0.3,0-0.7-0.1-1,0c-0.6,0.1-1,0.9-0.3,1.3c0.2,0.1,0.5,0.2,0.8,0.2c1.1,0.1,2.3-0.2,3.3-0.7   c1-0.6,1.8-1.4,2.8-1.9c1.1-0.6,2.3-0.9,3.5-1c0.5,1.6,2.2,2.1,3.3,3c1.3,1.1,2,2.7,2.8,4.1c1,1.6,2.6,2.5,3.7,4.1   c1,1.5,1.5,3.2,2.1,4.8c1.8,4.8,4.3,9.3,7.2,13.5c0.3,0.4,0.8,0.9,1.3,0.7C89.9,90.1,89.8,89.7,89.6,89.3z"/><path d="M55.4,78.7c-0.2-2.8-0.6-5.7-1.3-8.5c-0.7-2.8-1.7-5.5-2.6-8.2c-0.3-0.8-0.6-1.6-0.6-2.4c-0.1-1.1,0.1-2.3,0.3-3.4   c0.3-1.6,0.5-3.3,0.8-4.9c0.5-3,1-6.1,1.4-9.1c0.4-2.7,1.4-5.8,0.5-8.5c-0.4-1.2-1.2-2.2-1.8-3.3c-0.9-1.7-1-3.6-1.6-5.4   c-0.4-1.3-1.2-2.8-2.7-3.1c-2.1-0.3-3.1,2.3-3.7,3.8c-0.9,2.6-1.5,5.3-1.9,8.1c-0.1,0.9-0.2,1.9-0.5,2.8c-0.3,0.9-1.1,1.7-1.1,2.7   c-0.1,1.5,0.7,2.9,0.6,4.4c0,1.6-0.4,3.1,0,4.7c0.5,2,1.7,3.7,3,5.2c1.1,1.3,2.4,2.5,3.6,3.8c1.1,1.3,1,2.5,0.7,4.1   c-0.9,4-0.6,8.3-0.7,12.5c-0.1,2.5-0.1,4.9-0.2,7.4c0,0.9,1.5,1,1.5,0c0.1-5.9-0.1-12,0.5-17.9c0-0.4,0.1-0.8,0.2-1.2   c2.7,6.4,3.5,13,4.2,19.9c0.1,0.9,1.6,0.8,1.5-0.1c-0.1-0.7-0.1-1.4-0.2-2.1C55.5,79.5,55.5,79.1,55.4,78.7z M52.8,36.7   c-0.2,0-0.3,0-0.5,0c-0.9,0-1.7,0.4-1.7,0.8c0,0.5,0.7,0.8,1.7,0.8c0.1,0,0.2,0,0.3,0c0,0,0,0,0,0c0,0.2-0.1,0.5-0.1,0.7   c-0.6-0.2-1.1-0.4-1.7-0.5c-0.4-0.1-1-0.3-1.1-0.7c-0.2-0.6,0.3-1.2,0.7-1.5c0.4-0.3,0.8-0.5,1.3-0.6c0.3-0.1,0.6-0.2,0.8-0.2   c0,0,0.1,0,0.3-0.1C52.9,35.8,52.8,36.3,52.8,36.7z M42.6,38.4C42.6,38.4,42.6,38.3,42.6,38.4c0.1,0,0.3,0,0.4,0   c0.9,0,1.7-0.4,1.7-0.8c0-0.4-0.5-0.7-1.2-0.8c0.1-0.4,0.2-0.8,0.2-1.2c1.6,0.4,2.6,1.2,2.6,1.9c0,1.5-2.2,1.6-3.2,1.5   c-0.2,0-0.5,0-0.7,0C42.3,38.8,42.5,38.6,42.6,38.4z M49.6,57.1c-0.7-0.9-1.6-1.8-2.4-2.6c-0.6-0.6-1.2-1.1-1.7-1.7   c-1.3-1.5-2.5-3.3-2.8-5.4c-0.2-1.1,0-2.1,0-3.2c0.1-1.2-0.1-2.4-0.5-3.5c2.9-0.1,5.1-1.5,5.1-3.2c0-1.4-1.5-2.6-3.6-3   c0,0,0-0.2,0-0.2c0.1-2.1,0.6-4.1,1.2-6c0.3-1,0.7-1.9,1.1-2.9c0.3-0.6,0.6-1.8,1.4-1.8c1,0,1.5,2,1.8,2.6c0.2,0.5,0.3,1.1,0.4,1.6   c0.3,1.1,0.6,2.3,1.2,3.3c0.5,1.1,1.3,2,1.7,3.2c0,0,0,0.1,0,0.1c-2.4,0.4-4.1,1.6-4.1,3.1c0,1.5,1.5,2.7,3.7,3.1   C51.4,46.2,50.2,53.9,49.6,57.1z"/><path d="M49.8,49.1C49.6,49,49.3,49,49,48.9c-0.2-0.1-0.3-0.1-0.5-0.2c-0.2-0.1-0.4-0.1-0.6-0.1c-1-0.1-2,0.1-2.9,0.3   c-0.9,0.3-1.7,0.8-0.2,0.8c1.6,0,3.3,0,4.9,0c0.1,0,0.3,0,0.4-0.1C50.2,49.5,50.1,49.2,49.8,49.1z"/></g><text x="0" y="115" fill="#000000" font-size="5px" font-weight="bold" font-family="'Helvetica Neue', Helvetica, Arial-Unicode, Arial, Sans-serif">Created by Sasha Sash</text><text x="0" y="120" fill="#000000" font-size="5px" font-weight="bold" font-family="'Helvetica Neue', Helvetica, Arial-Unicode, Arial, Sans-serif">from the Noun Project</text></svg>